<?xml version="1.0" encoding="utf-8"?>
<!-- Generator: Adobe Illustrator 19.0.0, SVG Export Plug-In . SVG Version: 6.00 Build 0)  -->
<svg version="1.1" id="svg2" xmlns="http://www.w3.org/2000/svg" xmlns:xlink="http://www.w3.org/1999/xlink" x="0px" y="0px"
	 viewBox="496 -368 1024 768" enable-background="new 496 -368 1024 768" xml:space="preserve">
<g id="sky">
	<rect x="-6918.9" y="-7417.1" fill="#3498DB" stroke="#000000" stroke-miterlimit="10" width="15687.9" height="14889"/>
</g>
<g id="mountains">
	<g>
		<polygon fill="#14757B" points="321.6,136.5 493.1,315.2 337.7,331.4 		"/>
		<polygon fill="#ACE8EA" points="128.3,293.5 185.8,230.7 209.6,268.2 132.7,485.8 		"/>
		<polygon fill="#ACE8EA" points="-323.2,721.2 -204.3,204.2 -57.5,733.6 		"/>
		<polygon fill="#F5ECD9" points="-204.3,204.2 -118.2,155.3 -57.5,733.6 		"/>
		<polygon fill="#FFFFFF" points="-115.8,179.4 -118.2,155.3 -36.1,-0.1 58.9,335.2 		"/>
		<polygon fill="#229098" points="-57.5,733.6 58.9,335.2 -95.2,178.6 -115.8,179.4 		"/>
		<polygon fill="#F5ECD9" points="185.8,773.4 -57.5,733.6 58.9,335.2 128.3,293.5 		"/>
		<polygon fill="#C1E8E7" points="-36.1,-0.1 128.3,293.5 58.9,335.2 		"/>
		<polygon fill="#FFFFFF" points="185.8,230.7 321.6,136.5 350.9,490.4 		"/>
		<polygon fill="#14757B" points="132.7,485.8 200.5,852.9 350.9,490.4 209.6,268.2 		"/>
		<polygon fill="#ACE8EA" points="173.2,704.9 200.5,852.9 132.7,485.8 -57.5,733.6 		"/>
		<polygon fill="#229098" points="321.6,136.5 337.7,331.4 350.9,490.4 		"/>
		<polygon fill="#14757B" points="339.1,819.4 350.9,490.4 200.5,852.9 		"/>
		<polygon fill="#229098" points="602.4,830.3 339.1,819.4 350.9,490.4 		"/>
		<polygon fill="#ACE8EA" points="602.4,830.3 493.1,315.2 350.9,490.4 		"/>
		<polygon fill="#F5ECD9" points="602.4,830.3 758.9,830.1 493.1,315.2 		"/>
		<polygon fill="#14757B" points="493.1,315.2 702,523.8 758.9,830.1 		"/>
		<polygon fill="#63D3D6" points="758.9,830.1 957.4,815.6 702,523.8 		"/>
		<polygon fill="#ACE8EA" points="493.1,315.2 414.7,41.2 619.2,349.9 		"/>
		<polygon fill="#63D3D6" points="702,523.8 619.2,349.9 493.1,315.2 		"/>
		<polygon fill="#FFFFFF" points="493.1,315.2 414.7,41.2 321.6,136.5 		"/>
		<polygon fill="#229098" points="128.3,293.5 185.8,230.7 -36.1,-0.1 		"/>
		<polygon fill="#63D3D6" points="957.4,815.6 1021.6,764.9 804.7,560 		"/>
		<polygon fill="#ACE8EA" points="1021.6,764.9 1232.1,727 985.3,555.8 804.7,560 		"/>
		<polygon fill="#C1E8E7" points="786.3,570.8 679,421.9 679,317.6 781,231.9 985.3,555.8 		"/>
		<polygon fill="#1C8389" points="1232.1,727 781,231.9 985.3,555.8 		"/>
		<polygon fill="#FFFFFF" points="699,446 786.3,570.8 781,231.9 619.2,349.9 		"/>
		<polygon fill="#63D3D6" points="1019.1,493.5 1130.3,509.8 1292.5,668.6 1232.1,727 		"/>
		<polygon fill="#C1E8E7" points="985.3,555.8 1021.6,764.9 786.3,570.8 		"/>
		<polygon fill="#C1E8E7" points="1130.3,509.8 1232.1,727 1292.5,668.6 		"/>
	</g>
</g>
<g id="clouds">
	<path fill="#F5ECD9" d="M719.3,238.6c0-10.2-8.3-18.4-18.4-18.4s-18.4,8.3-18.4,18.4H719.3z"/>
	<path fill="#F5ECD9" d="M804.6,238.6c0-10.2-8.3-18.4-18.4-18.4c-10.2,0-18.4,8.3-18.4,18.4H804.6z"/>
	<path fill="#F5ECD9" d="M761.9,238.6c0-15.7-12.7-28.4-28.4-28.4s-28.4,12.7-28.4,28.4H761.9z"/>
	<g>
		<path fill="#F5ECD9" d="M784.8-31.3c0-4.6-3.7-8.2-8.2-8.2s-8.2,3.7-8.2,8.2H784.8z"/>
		<path fill="#F5ECD9" d="M810.3-31.3c0-3.5-2.9-6.4-6.4-6.4s-6.4,2.8-6.4,6.4H810.3z"/>
		<path fill="#F5ECD9" d="M803.9-31.3c0-7-5.7-12.7-12.7-12.7s-12.7,5.7-12.7,12.7H803.9z"/>
	</g>
	<g>
		<path fill="#F5ECD9" d="M991.5,160.4c0-6.6,5.4-12,12-12s12,5.4,12,12H991.5z"/>
		<path fill="#F5ECD9" d="M907.6,160.4c0-9.9,8.1-18,18-18s18,8.1,18,18H907.6z"/>
		<path fill="#F5ECD9" d="M931.5,160.4c0-19.9,16.1-36,36-36s36,16.1,36,36H931.5z"/>
	</g>
	<g>
		<path fill="#F5ECD9" d="M1013.5,180.2c0-5.3,4.3-9.6,9.5-9.6c5.3,0,9.6,4.3,9.6,9.6H1013.5z"/>
		<path fill="#F5ECD9" d="M1028.2,180.2c0-4.1,3.3-7.4,7.4-7.4c4.1,0,7.4,3.3,7.4,7.4H1028.2z"/>
	</g>
	<g>
		<g>
			<path fill="#F5ECD9" d="M1334.8,6.5c0-19.7-16-35.6-35.6-35.6c-19.7,0-35.6,16-35.6,35.6H1334.8z"/>
			<path fill="#F5ECD9" d="M1361.4,6.5c0-14.7-11.9-26.6-26.6-26.6s-26.6,11.9-26.6,26.6H1361.4z"/>
			<path fill="#F5ECD9" d="M1275.8,6.5c0-8.8-7.1-15.9-15.9-15.9S1244-2.3,1244,6.5H1275.8z"/>
		</g>
		<g>
			<path fill="#F5ECD9" d="M949.3,139.6c0-18.1-14.6-32.7-32.7-32.7c-18.1,0-32.7,14.6-32.7,32.7H949.3z"/>
			<path fill="#F5ECD9" d="M908.3,139.6c0-13.5-10.9-24.4-24.4-24.4c-13.4,0-24.4,10.9-24.4,24.4H908.3z"/>
			<path fill="#F5ECD9" d="M968.8,139.6c0-10.8-8.7-19.5-19.5-19.5s-19.5,8.7-19.5,19.5H968.8z"/>
			<path fill="#F5ECD9" d="M869.3,139.6c0-8.1-6.5-14.6-14.6-14.6s-14.6,6.6-14.6,14.6H869.3z"/>
		</g>
		<g>
			<g>
				<path fill="#F5ECD9" d="M1198,182.8c0-9-7.3-16.2-16.2-16.2s-16.2,7.3-16.2,16.2H1198z"/>
				<path fill="#F5ECD9" d="M1248,182.8c0-6.9-5.6-12.5-12.5-12.5s-12.5,5.6-12.5,12.5H1248z"/>
				<path fill="#F5ECD9" d="M1235.5,182.8c0-13.8-11.2-25-25-25s-25,11.2-25,25H1235.5z"/>
			</g>
			<g>
				<path fill="#F5ECD9" d="M835.7,160.9c0-7.7-6.2-13.9-13.9-13.9s-13.9,6.2-13.9,13.9H835.7z"/>
				<path fill="#F5ECD9" d="M846,160.9c0-5.7-4.6-10.4-10.4-10.4c-5.7,0-10.4,4.6-10.4,10.4H846z"/>
				<path fill="#F5ECD9" d="M812.6,160.9c0-3.4-2.8-6.2-6.2-6.2s-6.2,2.8-6.2,6.2H812.6z"/>
			</g>
			<g>
				<path fill="#F5ECD9" d="M893.7,2.4c0-8.3-6.7-15-15-15s-15,6.7-15,15H893.7z"/>
				<path fill="#F5ECD9" d="M998.4,2.4c0-12.4-10.1-22.4-22.5-22.4s-22.4,10-22.4,22.4H998.4z"/>
				<path fill="#F5ECD9" d="M968.5,2.4c0-24.8-20.1-44.9-44.9-44.9s-44.9,20.1-44.9,44.9L968.5,2.4z"/>
			</g>
			<g>
				<path fill="#F5ECD9" d="M1042.8,226.9c0-5.3-4.3-9.5-9.5-9.5c-5.3,0-9.6,4.3-9.6,9.5H1042.8z"/>
				<path fill="#F5ECD9" d="M1028.1,226.9c0-4.1-3.3-7.4-7.4-7.4c-4.1,0-7.4,3.3-7.4,7.4H1028.1z"/>
			</g>
			<g>
				<path fill="#F5ECD9" d="M1149.5-266.5c0-5.3-4.3-9.5-9.5-9.5c-5.3,0-9.5,4.3-9.5,9.5H1149.5z"/>
				<path fill="#F5ECD9" d="M1134.8-266.5c0-4.1-3.3-7.4-7.4-7.4s-7.4,3.3-7.4,7.4H1134.8z"/>
			</g>
			<g>
				<path fill="#F5ECD9" d="M1387.6-326.6c0-4.6-3.7-8.2-8.2-8.2c-4.6,0-8.2,3.7-8.2,8.2H1387.6z"/>
				<path fill="#F5ECD9" d="M1413-326.6c0-3.5-2.8-6.4-6.4-6.4c-3.5,0-6.4,2.8-6.4,6.4H1413z"/>
				<path fill="#F5ECD9" d="M1406.6-326.6c0-7-5.7-12.7-12.7-12.7s-12.7,5.7-12.7,12.7H1406.6z"/>
			</g>
			<g>
				<path fill="#F5ECD9" d="M596.9,21.9c0-5.3,4.3-9.5,9.5-9.5c5.3,0,9.5,4.3,9.5,9.5H596.9z"/>
				<path fill="#F5ECD9" d="M611.6,21.9c0-4.1,3.3-7.4,7.4-7.4c4.1,0,7.4,3.3,7.4,7.4H611.6z"/>
			</g>
		</g>
	</g>
	<g>
		<g>
			<path fill="#F5ECD9" d="M595.1,166.5h-8v-1h8V166.5z M579.1,166.5h-8v-1h8V166.5z M563.1,166.5h-8v-1h8V166.5z M547.1,166.5h-8
				v-1h8V166.5z M531.1,166.5h-8v-1h8V166.5z M515.1,166.5h-8v-1h8V166.5z M499.1,166.5h-8v-1h8V166.5z M483.1,166.5h-8v-1h8V166.5z
				 M467.1,166.5h-8v-1h8V166.5z M451.1,166.5h-8v-1h8V166.5z M435.1,166.5h-8v-1h8V166.5z M419.1,166.5h-5.4v-1h5.4V166.5z"/>
		</g>
		<g>
			<path fill="#F5ECD9" d="M1682.2-280.9h-8v-1h8V-280.9z M1666.2-280.9h-8v-1h8V-280.9z M1650.2-280.9h-8v-1h8V-280.9z
				 M1634.2-280.9h-8v-1h8V-280.9z M1618.2-280.9h-8v-1h8V-280.9z M1602.2-280.9h-8v-1h8V-280.9z M1586.2-280.9h-8v-1h8V-280.9z"/>
		</g>
		<g>
			<path fill="#F5ECD9" d="M1252-56.3h-8v-1h8V-56.3z M1236-56.3h-8v-1h8V-56.3z M1220-56.3h-8v-1h8V-56.3z M1204-56.3h-8v-1h8
				V-56.3z M1188-56.3h-8v-1h8V-56.3z M1172-56.3h-8v-1h8V-56.3z M1156-56.3h-8v-1h8V-56.3z M1140-56.3h-8v-1h8V-56.3z M1124-56.3
				h-8v-1h8V-56.3z M1108-56.3h-8v-1h8V-56.3z"/>
		</g>
	</g>
</g>
<g id="london">
	<g>
		<g id="lbase">
			<polygon fill="#1F489C" points="945.6,257.2 920.3,257.2 920.3,277.1 885.5,277.1 885.5,307.8 857,307.8 857,333.8 885.5,333.8 
				914.1,333.8 920.3,333.8 936.9,333.8 945.6,333.8 950.6,333.8 973.5,333.8 973.5,204.8 945.6,204.8 			"/>
			<rect x="1217.7" y="114.1" fill="#1F489C" width="51.4" height="16.6"/>
			<rect x="978" y="149.9" fill="#1F489C" width="47.9" height="183.9"/>
			<polygon fill="#1F489C" points="1243.4,89.9 1221.6,111.1 1265.9,111.1 			"/>
			<rect x="1522.2" y="301.6" fill="#1F489C" width="26.1" height="32.1"/>
			<polygon fill="#1F489C" points="1317.3,311.2 1298,311.2 1298,102 1199.9,102 1199.9,115.6 1184.7,115.6 1184.7,215.4 
				1159.3,215.4 1159.3,137.4 1097.4,137.4 1097.4,226.8 1063.4,226.8 1063.4,107.8 1000.7,107.8 1000.7,293.8 994.6,293.8 
				994.6,135.7 983.2,135.7 983.2,293.8 944.9,293.8 944.9,201 915.3,201 915.3,338.7 930.1,338.7 944.9,338.7 983.2,338.7 
				994.6,338.7 1000.7,338.7 1004.9,338.7 1051.7,338.7 1063.4,338.7 1097.4,338.7 1128.3,338.7 1147.6,338.7 1159.3,338.7 
				1184.7,338.7 1199.9,338.7 1246.6,338.7 1289.8,338.7 1298,338.7 1317.3,338.7 1331,338.7 1344.8,338.7 1344.8,229.1 
				1317.3,229.1 			"/>
			<rect x="1461.7" y="275.5" fill="#1F489C" width="56.9" height="58.3"/>
		</g>
		<path id="ldn2" fill="#1E6DB5" d="M537.8,335.4h-4.3V3.7h4.3V335.4z M545.1,3.7h-4.3v331.8h4.3V3.7z M552.4,3.7h-4.3v331.8h4.3
			V3.7z M559.7,3.7h-4.3v331.8h4.3V3.7z M567,3.7h-4.3v331.8h4.3V3.7z M574.3,3.7H570v331.8h4.3V3.7z M581.6,3.7h-4.3v331.8h4.3V3.7
			z M593.5,45h-4.3v290.4h4.3V45z M600.8,45h-4.3v290.4h4.3V45z M608.1,45h-4.3v290.4h4.3V45z M615.4,45h-4.3v290.4h4.3V45z
			 M622.7,45h-4.3v290.4h4.3V45z M630,45h-4.3v290.4h4.3V45z M637.3,45H633v290.4h4.3V45z M564.1-1.2V-31h-4.3v29.8H564.1z
			 M571.4-1.2V-31h-4.3v29.8H571.4z M578.7-1.2V-31h-4.3v29.8H578.7z M586-1.2V-31h-4.3v29.8H586z M593.3,39v-70h-4.3v70H593.3z
			 M600.6,39v-70h-4.3v70H600.6z M608,39v-70h-4.3v70H608z"/>

		
		
		<path id="ldn6" fill="#1998C6" d="M1130.2,148.1v8.7h-79.9v-8.7H1130.2z M1050.2,170.6h79.9v-8.7h-79.9V170.6z M1050.2,184.3h79.9
			v-8.7h-79.9V184.3z M1050.2,198h79.9v-8.7h-79.9V198z M1050.2,211.8h79.9V203h-79.9V211.8z M1050.2,225.5h79.9v-8.7h-79.9V225.5z
			 M1050.2,239.3h79.9v-8.7h-79.9V239.3z M1050.2,253h79.9v-8.7h-79.9V253z M1050.2,266.7h79.9V258h-79.9V266.7z M1050.2,280.5h79.9
			v-8.7h-79.9V280.5z M1050.2,294.2h79.9v-8.7h-79.9V294.2z M1050.2,308h79.9v-8.7h-79.9V308z M1050.2,321.7h79.9v-8.7h-79.9V321.7z
			 M1050.2,335.4h79.9v-8.7h-79.9V335.4z M1013.4,156.8h26.2v-8.7h-26.2V156.8z M1013.4,170.6h26.2v-8.7h-26.2V170.6z M1013.4,184.3
			h26.2v-8.7h-26.2V184.3z M1013.4,198h26.2v-8.7h-26.2V198z M1013.4,211.8h26.2V203h-26.2V211.8z M1013.4,225.5h26.2v-8.7h-26.2
			V225.5z M1013.4,239.3h26.2v-8.7h-26.2V239.3z M1013.4,253h26.2v-8.7h-26.2V253z M1013.4,266.7h26.2V258h-26.2V266.7z
			 M1013.4,280.5h26.2v-8.7h-26.2V280.5z M1013.4,294.2h26.2v-8.7h-26.2V294.2z M1013.4,308h26.2v-8.7h-26.2V308z M1013.4,321.7
			h26.2v-8.7h-26.2V321.7z M1013.4,335.4h26.2v-8.7h-26.2V335.4z"/>
		
		<path id="ldn7" fill="#EF4F34" d="M466.3,72.8v241.8h5.3v-15h4v15h5.9v-15h4v15h5.8v-15h4v15h5.9v-15h4v15h5.6V72.8H466.3z
			 M475.5,295h-4v-20.1h4V295z M475.5,270.3h-4v-20.1h4V270.3z M475.5,245.6h-4v-20.1h4V245.6z M475.5,220.9h-4v-20.1h4V220.9z
			 M475.5,196.2h-4V176h4V196.2z M475.5,171.5h-4v-20.1h4V171.5z M475.5,146.8h-4v-20.1h4V146.8z M475.5,122.1h-4v-20.1h4V122.1z
			 M475.5,97.4h-4V77.2h4V97.4z M485.4,295h-4v-20.1h4V295z M485.4,270.3h-4v-20.1h4V270.3z M485.4,245.6h-4v-20.1h4V245.6z
			 M485.4,220.9h-4v-20.1h4V220.9z M485.4,196.2h-4V176h4V196.2z M485.4,171.5h-4v-20.1h4V171.5z M485.4,146.8h-4v-20.1h4V146.8z
			 M485.4,122.1h-4v-20.1h4V122.1z M485.4,97.4h-4V77.2h4V97.4z M495.2,295h-4v-20.1h4V295z M495.2,270.3h-4v-20.1h4V270.3z
			 M495.2,245.6h-4v-20.1h4V245.6z M495.2,220.9h-4v-20.1h4V220.9z M495.2,196.2h-4V176h4V196.2z M495.2,171.5h-4v-20.1h4V171.5z
			 M495.2,146.8h-4v-20.1h4V146.8z M495.2,122.1h-4v-20.1h4V122.1z M495.2,97.4h-4V77.2h4V97.4z M505.1,295h-4v-20.1h4V295z
			 M505.1,270.3h-4v-20.1h4V270.3z M505.1,245.6h-4v-20.1h4V245.6z M505.1,220.9h-4v-20.1h4V220.9z M505.1,196.2h-4V176h4V196.2z
			 M505.1,171.5h-4v-20.1h4V171.5z M505.1,146.8h-4v-20.1h4V146.8z M505.1,122.1h-4v-20.1h4V122.1z M505.1,97.4h-4V77.2h4V97.4z
			 M436.6,320.5v4h-12.5v-4H436.6z M459.2,335.4h-15.6v-4.4h15.6V335.4z M424.1,35.3v279.3h4.6v-2.7h4v2.7h3.9V35.3H424.1z
			 M432.7,307.4h-4v-20.1h4V307.4z M432.7,282.6h-4v-20.1h4V282.6z M432.7,257.9h-4v-20.1h4V257.9z M432.7,233.2h-4v-20.1h4V233.2z
			 M432.7,208.5h-4v-20.1h4V208.5z M432.7,183.8h-4v-20.1h4V183.8z M432.7,159.1h-4V139h4V159.1z M432.7,134.4h-4v-20.1h4V134.4z
			 M432.7,109.7h-4V89.6h4V109.7z M432.7,85h-4V64.9h4V85z M432.7,60.3h-4V40.2h4V60.3z M510.8,320.5v4h-44.5v-4H510.8z M443.6,54.8
			v259.8h5.8v-8.4h4v8.4h5.8V54.8H443.6z M453.4,301.6h-4v-20.1h4V301.6z M453.4,276.9h-4v-20.1h4V276.9z M453.4,252.2h-4v-20.1h4
			V252.2z M453.4,227.5h-4v-20.1h4V227.5z M453.4,202.8h-4v-20.1h4V202.8z M453.4,178.1h-4v-20.1h4V178.1z M453.4,153.4h-4v-20.1h4
			V153.4z M453.4,128.7h-4v-20.1h4V128.7z M453.4,104h-4V83.8h4V104z M453.4,79.3h-4V59.1h4V79.3z M510.8,335.4h-44.5v-4.4h44.5
			V335.4z M459.2,320.5v4h-15.6v-4H459.2z M436.6,335.4h-12.5v-4.4h12.5V335.4z M394.8,18.8v295.8h4.9v-17.8h4v17.8h5.9v-17.8h4
			v17.8h4.9V18.8h-4.3v0.3h-5v-0.3h-0.6v-5h0.6v-30.9h-3.5v30.9h0.3v5h-0.3v0.3h-5v-0.3H394.8z M409.6,25.1h4v20.1h-4V25.1z
			 M409.6,49.8h4v20.1h-4V49.8z M409.6,74.5h4v20.1h-4V74.5z M409.6,99.2h4v20.1h-4V99.2z M409.6,123.9h4V144h-4V123.9z
			 M409.6,148.6h4v20.1h-4V148.6z M409.6,173.3h4v20.1h-4V173.3z M409.6,198h4v20.1h-4V198z M409.6,222.7h4v20.1h-4V222.7z
			 M409.6,247.4h4v20.1h-4V247.4z M409.6,272.1h4v20.1h-4V272.1z M403.7,292.3h-4v-20.1h4V292.3z M403.7,267.6h-4v-20.1h4V267.6z
			 M403.7,242.9h-4v-20.1h4V242.9z M403.7,218.1h-4V198h4V218.1z M403.7,193.4h-4v-20.1h4V193.4z M403.7,168.7h-4v-20.1h4V168.7z
			 M403.7,144h-4v-20.1h4V144z M403.7,119.3h-4V99.2h4V119.3z M403.7,94.6h-4V74.5h4V94.6z M403.7,69.9h-4V49.8h4V69.9z M403.7,25.1
			v20.1h-4V25.1H403.7z M418.6,320.5v4h-23.8v-4H418.6z M418.6,335.4h-23.8v-4.4h23.8V335.4z"/>
	</g>
</g>
<rect x="-111.7" y="339.6" fill="#44C650" width="2607.9" height="104"/>
<path id="wire2" fill="none" stroke="#DBDBDB" stroke-miterlimit="10" d="M1166.9-368.6c-21.5,14.2-46.2,21.9-70.7,29
	c-27.8,8-60.8-8-89.3-8v45l-62.4,47l159.1,45.3l-91.9,66.9c72.7,0,146.8-21.5,214.3-21.5c107.1,0,28,55.8,89.9,130.8
	c57.6,69.8,174.9,116.5,160.7,231.6c-12.4,101.2-159.8,133.5-241.1,93.3C1086.9,217.3,1207.7-38,1360.2-1.4
	c109.6,26.3,145.7,186.3,92.8,271.4c-31,49.8-96.2,67.1-149.5,86.7c-38.3,14.1-85.1,10.7-120.6,30.4c-6.4,3.5-12.4,8.1-17.9,13.3"/>
<g id="Layer_1_1_">
	<g id="plane">
		<path fill="#FFFEF0" d="M1664.8,306.8c3,0.6,7.7,1.4,11.9,1.4c5.5,0,17.9-1.8,17.9-1.8l-45.2-16h-7.6L1664.8,306.8z"/>
		<path fill="#C8C6BC" d="M1796.1,302.9l35.2,25.6c0,0,2,0.5,5.2,1.2l-37.5-26.8L1796.1,302.9L1796.1,302.9z"/>
		<path fill="#FFFEF0" d="M1836.5,329.7c4.9,1,12.6,2.3,19.5,2.3c9,0,29.3-3,29.3-3l-73.9-26.2H1799L1836.5,329.7z"/>
		<path id="carlinga" fill="#FFFEF0" d="M1673.8,286.3l13.3,18.2l48,12h176c0,0,39.5-2.2,51.7,6l4.3,4c0,0,12,4.5,13.6,9
			c0.1,0.3,0.2,0.7,0.2,1c-0.1,4.9-12.7,16-69.9,16h-144c-10.7,0-25.6-3-41.9-7.2c-38.2-9.9-81.9-26.4-81.9-26.4v-8.6l8.6-2.1
			l-5.7-21.9H1673.8L1673.8,286.3z"/>
		<polygon fill="#FFFEF0" points="1638.5,256.5 1652,256.5 1665.3,274.7 1643.2,274.7 		"/>
		<polygon fill="#FFFEF0" points="1650.2,286.3 1646.3,286.3 1643.2,274.7 1646.6,274.7 		"/>
		<polygon fill="#8CC152" points="1665.3,274.7 1673.8,286.3 1650.2,286.3 1646.6,274.7 		"/>
		<polygon fill="#C8C6BC" points="1681.2,313.6 1667.5,327.6 1654.7,323.1 		"/>
		<path fill="#C8C6BC" d="M1629.9,328.7l20.3-14.8c0,0,1.2-0.3,3-0.7l-21.6,15.4L1629.9,328.7L1629.9,328.7z"/>
		<path fill="#FFFEF0" d="M1653.1,313.3c2.9-0.6,7.3-1.3,11.2-1.3c5.2,0,16.9,1.7,16.9,1.7l-38.5,15.1h-11.1L1653.1,313.3z"/>
		
			<rect x="1648.5" y="255.4" transform="matrix(0.9547 -0.2977 0.2977 0.9547 -8.7466 503.594)" fill="#8CC152" width="1" height="50.3"/>
		<path fill="#00ADEF" d="M1756.1,334.8h161l5,5h-166c-24.7,0-42.6-0.6-55.3-1.3c-7.5-2.3-14.8-4.6-21.5-6.9
			C1687.7,332.7,1710.2,334.8,1756.1,334.8z"/>
		<path fill="#DA4453" d="M1756.1,341.5h133.2l-2.5,2.5h-130.7c-15.1,0-27.7-0.2-38.1-0.6c-3.4-0.9-6.9-1.9-10.3-2.9
			C1719.7,341.1,1735.6,341.5,1756.1,341.5z"/>
		<path fill="#E4E2D6" d="M1980.8,335.5c0.1,0.3,0.2,0.7,0.2,1c-0.1,4.9-12.7,16-69.9,16h-144c-27,0-87.8-20.9-87.8-20.9
			s28.4,12.1,114.8,12.1C1973.3,343.8,1980.5,335.6,1980.8,335.5z"/>
		<path fill="#EDEDE6" d="M1875.2,356.4c-24,3.4-34.6-0.3-41.2-2v-12c6.5-1.7,17.2-5.4,41.2-2V356.4z"/>
		<polygon fill="#C8C6BC" points="1877.8,342.4 1877.8,344.4 1877.8,354.4 1875.2,356.4 1875.2,344.4 1875.2,340.4 		"/>
		<path fill="#C8C6BC" d="M1833.4,342.4c5.7-1.5,14.6-4.5,32.6-3l-17.9,17.9c-6.8-0.7-11.3-2.1-14.7-3V342.4L1833.4,342.4z"/>
		<path fill="#C8C6BC" d="M1776.9,365.5l35.2-25.6c0,0,2-0.5,5.1-1.2l-37.5,26.8L1776.9,365.5L1776.9,365.5z"/>
		<path fill="#FFFEF0" d="M1817.2,338.7c4.9-1,12.6-2.3,19.5-2.3c9,0,29.3,3,29.3,3l-66.9,26.2h-19.4L1817.2,338.7z"/>
		<path fill="#1998C6" d="M1733.6,324.5c0-0.6,0.5-1,1-1h1c0.6,0,1,0.4,1,1v2c0,0.6-0.4,1-1,1h-1c-0.5,0-1-0.4-1-1V324.5z
			 M1741.6,326.5c0,0.6,0.5,1,1,1h1c0.6,0,1-0.4,1-1v-2c0-0.6-0.4-1-1-1h-1c-0.5,0-1,0.4-1,1V326.5z M1749.6,326.5c0,0.6,0.5,1,1,1
			h1c0.6,0,1-0.4,1-1v-2c0-0.6-0.4-1-1-1h-1c-0.5,0-1,0.4-1,1V326.5z M1757.6,326.5c0,0.6,0.5,1,1,1h1c0.6,0,1-0.4,1-1v-2
			c0-0.6-0.4-1-1-1h-1c-0.5,0-1,0.4-1,1V326.5z M1765.6,326.5c0,0.6,0.5,1,1,1h1c0.6,0,1-0.4,1-1v-2c0-0.6-0.4-1-1-1h-1
			c-0.5,0-1,0.4-1,1V326.5z M1773.6,326.5c0,0.6,0.5,1,1,1h1c0.6,0,1-0.4,1-1v-2c0-0.6-0.4-1-1-1h-1c-0.5,0-1,0.4-1,1V326.5z
			 M1781.6,326.5c0,0.6,0.5,1,1,1h1c0.6,0,1-0.4,1-1v-2c0-0.6-0.4-1-1-1h-1c-0.5,0-1,0.4-1,1V326.5z M1789.6,326.5c0,0.6,0.5,1,1,1
			h1c0.6,0,1-0.4,1-1v-2c0-0.6-0.4-1-1-1h-1c-0.5,0-1,0.4-1,1V326.5z M1797.6,326.5c0,0.6,0.5,1,1,1h1c0.6,0,1-0.4,1-1v-2
			c0-0.6-0.4-1-1-1h-1c-0.5,0-1,0.4-1,1V326.5z M1805.6,326.5c0,0.6,0.5,1,1,1h1c0.6,0,1-0.4,1-1v-2c0-0.6-0.4-1-1-1h-1
			c-0.5,0-1,0.4-1,1V326.5z M1813.6,326.5c0,0.6,0.5,1,1,1h1c0.6,0,1-0.4,1-1v-2c0-0.6-0.4-1-1-1h-1c-0.5,0-1,0.4-1,1V326.5z
			 M1821.6,326.5c0,0.6,0.5,1,1,1h1c0.6,0,1-0.4,1-1v-2c0-0.6-0.4-1-1-1h-1c-0.5,0-1,0.4-1,1V326.5z M1829.6,326.5c0,0.6,0.5,1,1,1
			h1c0.6,0,1-0.4,1-1v-2c0-0.6-0.4-1-1-1h-1c-0.5,0-1,0.4-1,1V326.5z M1837.6,326.5c0,0.6,0.5,1,1,1h1c0.6,0,1-0.4,1-1v-2
			c0-0.6-0.4-1-1-1h-1c-0.5,0-1,0.4-1,1V326.5z M1845.6,326.5c0,0.6,0.5,1,1,1h1c0.6,0,1-0.4,1-1v-2c0-0.6-0.4-1-1-1h-1
			c-0.5,0-1,0.4-1,1V326.5z M1853.6,326.5c0,0.6,0.5,1,1,1h1c0.6,0,1-0.4,1-1v-2c0-0.6-0.4-1-1-1h-1c-0.5,0-1,0.4-1,1V326.5z
			 M1861.6,326.5c0,0.6,0.5,1,1,1h1c0.6,0,1-0.4,1-1v-2c0-0.6-0.4-1-1-1h-1c-0.5,0-1,0.4-1,1V326.5z M1869.6,326.5c0,0.6,0.5,1,1,1
			h1c0.6,0,1-0.4,1-1v-2c0-0.6-0.4-1-1-1h-1c-0.5,0-1,0.4-1,1V326.5z M1877.6,326.5c0,0.6,0.5,1,1,1h1c0.6,0,1-0.4,1-1v-2
			c0-0.6-0.4-1-1-1h-1c-0.5,0-1,0.4-1,1V326.5z M1885.6,326.5c0,0.6,0.5,1,1,1h1c0.6,0,1-0.4,1-1v-2c0-0.6-0.4-1-1-1h-1
			c-0.5,0-1,0.4-1,1V326.5z M1893.6,326.5c0,0.6,0.5,1,1,1h1c0.6,0,1-0.4,1-1v-2c0-0.6-0.4-1-1-1h-1c-0.5,0-1,0.4-1,1V326.5z
			 M1901.6,326.5c0,0.6,0.5,1,1,1h1c0.6,0,1-0.4,1-1v-2c0-0.6-0.4-1-1-1h-1c-0.5,0-1,0.4-1,1V326.5z M1909.6,326.5c0,0.6,0.5,1,1,1
			h1c0.6,0,1-0.4,1-1v-2c0-0.6-0.4-1-1-1h-1c-0.5,0-1,0.4-1,1V326.5z M1917.6,326.5c0,0.6,0.5,1,1,1h1c0.6,0,1-0.4,1-1v-2
			c0-0.6-0.4-1-1-1h-1c-0.5,0-1,0.4-1,1V326.5z"/>
		<path fill="#3BAFDA" d="M1962.8,322.5l4.4,4c-16.9,0-16.1-4-16.1-4H1962.8L1962.8,322.5z M1959.3,322.3l2.4,4.7l0.9-0.5l-2.4-4.7
			L1959.3,322.3z M1955.4,322l0.6,4.2l1-0.1l-0.6-4.2L1955.4,322z"/>
	</g>
	<g id="torre">
		<rect x="-58.2" y="107.5" fill="#FFFEF0" width="362.5" height="2900"/>
		<rect x="-420.7" y="107.5" fill="#FFFEF0" width="362.5" height="2900"/>
		<rect x="-333.6" y="107.5" fill="#E4E2D6" width="543.8" height="2900"/>
		<polygon opacity="0.4" fill="#C8C6BC" enable-background="new    " points="-239.4,288.8 123.1,288.8 304.3,243.4 304.3,266.1 
			123.1,311.4 -239.4,311.4 -420.7,266.1 -420.7,243.4 		"/>
		<rect x="-239.4" y="-73.7" fill="#FFFEF0" width="362.5" height="362.5"/>
		<rect x="-69.5" y="-980" fill="#DA4453" width="22.7" height="453.1"/>
		<polygon fill="#FFFEF0" points="-601.9,-323 -239.4,-413.6 -239.4,-458.9 -601.9,-368.3 -647.2,-357 -647.2,-311.6 		"/>
		<polygon fill="#FFFEF0" points="485.6,-323 530.9,-311.6 530.9,-357 485.6,-368.3 123.1,-458.9 123.1,-413.6 		"/>
		<polygon fill="#E4E2D6" points="123.1,288.8 485.6,198.1 485.6,-164.4 123.1,-73.7 		"/>
		<polygon fill="#E4E2D6" points="-601.9,198.1 -239.4,288.8 -239.4,-73.7 -601.9,-164.4 		"/>
		<polygon fill="#E4E2D6" points="123.1,-73.7 485.6,-164.4 485.6,-255 123.1,-164.4 		"/>
		<rect x="-239.4" y="-164.4" fill="#FFFEF0" width="362.5" height="90.6"/>
		<polygon fill="#E4E2D6" points="-601.9,-164.4 -239.4,-73.7 -239.4,-164.4 -601.9,-255 		"/>
		<polygon fill="#E4E2D6" points="395,-311.6 123.1,-255 89.1,-617.5 		"/>
		<polygon fill="#FFFEF0" points="89.1,-617.5 123.1,-255 -239.4,-255 -205.4,-617.5 		"/>
		<polygon fill="#E4E2D6" points="-205.4,-617.5 -239.4,-255 -511.3,-311.6 		"/>
		<rect x="-239.4" y="-255" fill="#DA4453" width="362.5" height="45.3"/>
		<polygon fill="#BA3548" points="-601.9,-345.6 -239.4,-255 -239.4,-209.7 -239.4,-164.4 -601.9,-255 -647.2,-266.3 -647.2,-311.6 
			-647.2,-357 		"/>
		<polygon fill="#ED5565" points="485.6,-345.6 530.9,-357 530.9,-311.6 530.9,-266.3 485.6,-255 123.1,-164.4 123.1,-209.7 
			123.1,-255 		"/>
		<rect x="-239.4" y="-209.7" fill="#DA4453" width="362.5" height="45.3"/>
		<polygon opacity="0.4" fill="#C8C6BC" enable-background="new    " points="123.1,-164.4 485.6,-255 485.6,-209.7 123.1,-119.1 
			-239.4,-119.1 -601.9,-209.7 -601.9,-255 -239.4,-164.4 		"/>
		<path fill="#FFFEF0" d="M-80.8-980c0,12.5,10.1,22.7,22.7,22.7c12.5,0,22.7-10.1,22.7-22.7c0-12.5-10.1-22.7-22.7-22.7
			S-80.8-992.5-80.8-980z"/>
	</g>
</g>
<g id="text3">
	<text transform="matrix(1 0 0 1 817.4995 -310.6447)" fill="#F5ECD9" font-family="'Roboto-Thin'" font-size="36px">to Austin, TX</text>
</g>
<g id="text2">
	<text transform="matrix(1 0 0 1 817.7998 -311.5982)" fill="#FFFFFF" font-family="'Roboto-Thin'" font-size="36px">from Chattanooga, TN</text>
</g>
<text id="text1" transform="matrix(1 0 0 1 557.5032 -311.6446)" fill="#FFFFFF" font-family="'Roboto-Thin'" font-size="36px">In 2019 I moved</text>
<g id="planebig">
	<g>
		<path fill="#FFFEF0" d="M-2357.6-434.1c15.2,0.2,36.5,2.9,36.5,2.9s-21.3,2.7-36.5,2.9c-15.2,0.2-27.8-2.9-27.8-2.9
			S-2372.8-434.3-2357.6-434.1z"/>
		<g>
			<g>
				<g>
					<path fill="#C8C6BC" d="M-2385.5-431.2l145.8,106.2c0,0,8.4,2.2,21.3,4.9l-155.3-111.1H-2385.5L-2385.5-431.2z"/>
					<path fill="#FFFEF0" d="M-2218.3-320.1c20.4,4.2,52.3,9.7,80.7,9.7c37.1,0,121.3-12.4,121.3-12.4l-305.9-108.4h-51.4
						L-2218.3-320.1z"/>
				</g>
			</g>
		</g>
		<path opacity="0.4" fill="#BCBAD0" enable-background="new    " d="M-2385.5-431.2c0,0,12.6-3.1,27.8-2.9
			c15.2,0.2,36.5,2.9,36.5,2.9s-0.3,0.1-0.9,0.1l305.7,108.3c0,0-84.1,12.4-121.2,12.4c-28.5,0-60.4-5.4-80.8-9.7
			c-13-2.7-21.3-4.9-21.3-4.9L-2385.5-431.2h0.1C-2385.4-431.2-2385.5-431.2-2385.5-431.2z"/>
	</g>
	<g>
		<g>
			<g>
				<path fill="#C8C6BC" d="M-1331-346.5l238,173.4c0,0,13.7,3.6,34.9,8l-253.5-181.3L-1331-346.5L-1331-346.5z"/>
				<path fill="#FFFEF0" d="M-1058.1-165.2c33.4,6.9,85.3,15.8,131.8,15.8c60.6,0,197.9-20.3,197.9-20.3l-499.4-177h-83.8
					L-1058.1-165.2z"/>
			</g>
		</g>
		<polygon opacity="0.4" fill="#BCBAD0" enable-background="new    " points="-968.1,-254.7 -1246.8,-285.2 -1206,-254.7 		"/>
	</g>
	<g>
		<path id="carlinga_1_" fill="#FFFEF0" d="M-2157.6-458.6l89.8,122.8l324.5,81.1h1189.9c0,0,267-14.6,349.8,40.6l29.3,27
			c0,0,81.2,30.7,92.3,60.9c0.9,2.3,1.3,4.5,1.3,6.8c-0.4,32.8-85.6,108.1-472.7,108.1H-1527c-72.3,0-172.8-20.4-283-48.9
			c-258-66.7-553.7-178.2-553.7-178.2v-57.9l58.4-14.2l-38.7-148L-2157.6-458.6L-2157.6-458.6z"/>
		<polygon fill="#FFFEF0" points="-2396.7,-660.4 -2305.1,-660.4 -2215.3,-537.5 -2364.5,-537.5 		"/>
		<g>
			<polygon fill="#FFFEF0" points="-2317.3,-458.6 -2343.9,-458.6 -2364.5,-537.5 -2341.7,-537.5 			"/>
			<polygon fill="#8CC152" points="-2215.3,-537.5 -2157.6,-458.6 -2317.3,-458.6 -2341.7,-537.5 			"/>
		</g>
	</g>
	<g>
		<polygon fill="#C8C6BC" points="-2107.7,-273.9 -2200.5,-179.6 -2286.7,-210.1 		"/>
		<g>
			<path fill="#C8C6BC" d="M-2454.7-172l137.1-99.9c0,0,7.9-2.1,20.1-4.6l-146,104.4L-2454.7-172L-2454.7-172z"/>
			<path fill="#FFFEF0" d="M-2297.6-276.4c19.3-4,49.2-9.1,75.9-9.1c34.9,0,113.9,11.7,113.9,11.7L-2368.3-172h-75.3L-2297.6-276.4z
				"/>
		</g>
	</g>
	<g>
		<polygon fill="#8CC152" points="-2272,-336.7 -2278.5,-334.6 -2379.5,-659.1 -2373.1,-661.1 		"/>
	</g>
	<g>
		<g>
			<path fill="#00ADEF" d="M-1601.4-130.8l1078.7-22.9l43.6,56.7h-1122.2c-166.9,0-288-4.1-373.6-9c-50.6-15.4-99.9-31.3-145.5-46.4
				C-2064-145.2-1911.6-130.8-1601.4-130.8z"/>
		</g>
		<g>
			<path fill="#DA4453" d="M-1601.4-85.3h900.3L-718-68.4h-883.4c-102.2,0-187.2-1.5-257.3-3.8c-23.2-6.3-46.5-13-69.7-19.8
				C-1847.2-88.2-1740.1-85.3-1601.4-85.3z"/>
		</g>
	</g>
	<path fill="#E4E2D6" d="M-82.1-126.3c0.9,2.3,1.3,4.5,1.3,6.8c-0.4,32.8-85.6,108.1-472.7,108.1H-1527
		c-182.6,0-593.5-141.1-593.5-141.1s192,82.1,776.1,82.1C-133.3-70.3-84.3-125.7-82.1-126.3z"/>
	<g>
		<g>
			<path fill="#EDEDE6" d="M-796.4,15.4c-162,22.8-234-1.8-278.3-13.5v-81.1c44.2-11.7,116.3-36.4,278.3-13.5V15.4z"/>
			<polygon fill="#C8C6BC" points="-778.9,-79.3 -778.9,-65.8 -778.9,1.8 -796.4,15.4 -796.4,-65.8 -796.4,-92.8 			"/>
			<g>
				<polygon fill="#EDEDE6" points="-1074.6,-4.3 -1092,-8.7 -1092,-68.8 -1074.6,-73.1 				"/>
				<g>
					<polygon fill="#EDEDE6" points="-1092,-17.3 -1144.2,-30.1 -1144.2,-47.3 -1092,-60.2 					"/>
				</g>
			</g>
			<g>
				<path fill="#C8C6BC" d="M-1078.9-79.3c38.6-10.2,98.4-30.3,220.6-20.1L-979.6,22c-46.2-4.6-76.4-14.1-99.2-20.1L-1078.9-79.3
					L-1078.9-79.3z"/>
			</g>
		</g>
		<g>
			<path fill="#C8C6BC" d="M-1460.9,76.5l238-173.4c0,0,13.7-3.6,34.8-8l-253.5,181.4H-1460.9L-1460.9,76.5z"/>
			<path fill="#FFFEF0" d="M-1188-104.9c33.4-6.9,85.3-15.8,131.8-15.8c60.6,0,197.9,20.2,197.9,20.2l-452.4,177h-130.8L-1188-104.9
				z"/>
		</g>
	</g>
	<g>
		<path fill="#00ADEF" d="M-203.8-214.2h-79.4c0,0-5.7,27,108.6,27L-203.8-214.2L-203.8-214.2z"/>
		<g>
			<g>
				<path fill="#00ADEF" d="M-1753.5-187.1c0,3.7,3,6.8,6.8,6.8h6.8c3.7,0,6.8-3,6.8-6.8v-13.5c0-3.8-3-6.8-6.8-6.8h-6.8
					c-3.7,0-6.8,3-6.8,6.8V-187.1z"/>
			</g>
			<g>
				<path fill="#00ADEF" d="M-1699.4-187.1c0,3.7,3,6.8,6.8,6.8h6.8c3.7,0,6.8-3,6.8-6.8v-13.5c0-3.8-3-6.8-6.8-6.8h-6.8
					c-3.7,0-6.8,3-6.8,6.8V-187.1z"/>
			</g>
			<g>
				<path fill="#00ADEF" d="M-1645.3-187.1c0,3.7,3,6.8,6.8,6.8h6.8c3.7,0,6.8-3,6.8-6.8v-13.5c0-3.8-3-6.8-6.8-6.8h-6.8
					c-3.7,0-6.8,3-6.8,6.8V-187.1z"/>
			</g>
			<g>
				<path fill="#00ADEF" d="M-1591.3-187.1c0,3.7,3,6.8,6.8,6.8h6.8c3.7,0,6.8-3,6.8-6.8v-13.5c0-3.8-3-6.8-6.8-6.8h-6.8
					c-3.7,0-6.8,3-6.8,6.8V-187.1z"/>
			</g>
			<g>
				<path fill="#00ADEF" d="M-1537.2-187.1c0,3.7,3,6.8,6.8,6.8h6.8c3.7,0,6.8-3,6.8-6.8v-13.5c0-3.8-3-6.8-6.8-6.8h-6.8
					c-3.7,0-6.8,3-6.8,6.8V-187.1z"/>
			</g>
			<g>
				<path fill="#00ADEF" d="M-1483.1-187.1c0,3.7,3,6.8,6.8,6.8h6.8c3.7,0,6.8-3,6.8-6.8v-13.5c0-3.8-3-6.8-6.8-6.8h-6.8
					c-3.7,0-6.8,3-6.8,6.8V-187.1z"/>
			</g>
			<g>
				<path fill="#00ADEF" d="M-1429-187.1c0,3.7,3,6.8,6.8,6.8h6.8c3.7,0,6.8-3,6.8-6.8v-13.5c0-3.8-3-6.8-6.8-6.8h-6.8
					c-3.7,0-6.8,3-6.8,6.8V-187.1z"/>
			</g>
			<g>
				<path fill="#00ADEF" d="M-1374.9-187.1c0,3.7,3,6.8,6.8,6.8h6.8c3.7,0,6.8-3,6.8-6.8v-13.5c0-3.8-3-6.8-6.8-6.8h-6.8
					c-3.7,0-6.8,3-6.8,6.8V-187.1z"/>
			</g>
			<g>
				<path fill="#00ADEF" d="M-1320.8-187.1c0,3.7,3,6.8,6.8,6.8h6.8c3.7,0,6.8-3,6.8-6.8v-13.5c0-3.8-3-6.8-6.8-6.8h-6.8
					c-3.7,0-6.8,3-6.8,6.8V-187.1z"/>
			</g>
			<g>
				<path fill="#00ADEF" d="M-1266.8-187.1c0,3.7,3,6.8,6.8,6.8h6.8c3.7,0,6.8-3,6.8-6.8v-13.5c0-3.8-3-6.8-6.8-6.8h-6.8
					c-3.7,0-6.8,3-6.8,6.8V-187.1z"/>
			</g>
			<g>
				<path fill="#00ADEF" d="M-1212.7-187.1c0,3.7,3,6.8,6.8,6.8h6.8c3.7,0,6.8-3,6.8-6.8v-13.5c0-3.8-3-6.8-6.8-6.8h-6.8
					c-3.7,0-6.8,3-6.8,6.8V-187.1z"/>
			</g>
			<g>
				<path fill="#00ADEF" d="M-1158.6-187.1c0,3.7,3,6.8,6.8,6.8h6.8c3.7,0,6.8-3,6.8-6.8v-13.5c0-3.8-3-6.8-6.8-6.8h-6.8
					c-3.7,0-6.8,3-6.8,6.8V-187.1z"/>
			</g>
			<g>
				<path fill="#00ADEF" d="M-1104.5-187.1c0,3.7,3,6.8,6.8,6.8h6.8c3.7,0,6.8-3,6.8-6.8v-13.5c0-3.8-3-6.8-6.8-6.8h-6.8
					c-3.7,0-6.8,3-6.8,6.8V-187.1z"/>
			</g>
			<g>
				<path fill="#00ADEF" d="M-1050.4-187.1c0,3.7,3,6.8,6.8,6.8h6.8c3.8,0,6.8-3,6.8-6.8v-13.5c0-3.8-3-6.8-6.8-6.8h-6.8
					c-3.7,0-6.8,3-6.8,6.8V-187.1z"/>
			</g>
			<g>
				<path fill="#00ADEF" d="M-996.3-187.1c0,3.7,3,6.8,6.8,6.8h6.8c3.7,0,6.8-3,6.8-6.8v-13.5c0-3.8-3-6.8-6.8-6.8h-6.8
					c-3.7,0-6.8,3-6.8,6.8V-187.1z"/>
			</g>
			<g>
				<path fill="#00ADEF" d="M-942.3-187.1c0,3.7,3,6.8,6.8,6.8h6.8c3.7,0,6.8-3,6.8-6.8v-13.5c0-3.8-3-6.8-6.8-6.8h-6.8
					c-3.7,0-6.8,3-6.8,6.8V-187.1z"/>
			</g>
			<g>
				<path fill="#00ADEF" d="M-888.2-187.1c0,3.7,3,6.8,6.8,6.8h6.8c3.7,0,6.8-3,6.8-6.8v-13.5c0-3.8-3-6.8-6.8-6.8h-6.8
					c-3.7,0-6.8,3-6.8,6.8V-187.1z"/>
			</g>
			<g>
				<path fill="#00ADEF" d="M-834.1-187.1c0,3.7,3,6.8,6.8,6.8h6.8c3.7,0,6.8-3,6.8-6.8v-13.5c0-3.8-3-6.8-6.8-6.8h-6.8
					c-3.7,0-6.8,3-6.8,6.8V-187.1z"/>
			</g>
			<g>
				<path fill="#00ADEF" d="M-780-187.1c0,3.7,3,6.8,6.8,6.8h6.8c3.7,0,6.8-3,6.8-6.8v-13.5c0-3.8-3-6.8-6.8-6.8h-6.8
					c-3.7,0-6.8,3-6.8,6.8V-187.1z"/>
			</g>
			<g>
				<path fill="#00ADEF" d="M-725.9-187.1c0,3.7,3,6.8,6.8,6.8h6.8c3.7,0,6.8-3,6.8-6.8v-13.5c0-3.8-3-6.8-6.8-6.8h-6.8
					c-3.7,0-6.8,3-6.8,6.8V-187.1z"/>
			</g>
			<g>
				<path fill="#00ADEF" d="M-671.8-187.1c0,3.7,3,6.8,6.8,6.8h6.8c3.7,0,6.8-3,6.8-6.8v-13.5c0-3.8-3-6.8-6.8-6.8h-6.8
					c-3.7,0-6.8,3-6.8,6.8V-187.1z"/>
			</g>
			<g>
				<path fill="#00ADEF" d="M-617.8-187.1c0,3.7,3,6.8,6.8,6.8h6.8c3.7,0,6.8-3,6.8-6.8v-13.5c0-3.8-3-6.8-6.8-6.8h-6.8
					c-3.7,0-6.8,3-6.8,6.8V-187.1z"/>
			</g>
			<g>
				<path fill="#00ADEF" d="M-563.7-187.1c0,3.7,3,6.8,6.8,6.8h6.8c3.7,0,6.8-3,6.8-6.8v-13.5c0-3.8-3-6.8-6.8-6.8h-6.8
					c-3.7,0-6.8,3-6.8,6.8V-187.1z"/>
			</g>
			<g>
				<path fill="#00ADEF" d="M-509.6-187.1c0,3.7,3,6.8,6.8,6.8h6.8c3.7,0,6.8-3,6.8-6.8v-13.5c0-3.8-3-6.8-6.8-6.8h-6.8
					c-3.7,0-6.8,3-6.8,6.8V-187.1z"/>
			</g>
		</g>
	</g>
	<path fill="#FFFEF0" d="M-1395.9,69.8c35.5,0.4,85.2,6.8,85.2,6.8s-49.7,6.3-85.2,6.8c-35.5,0.4-65-6.8-65-6.8
		S-1431.4,69.3-1395.9,69.8z"/>
	<path fill="#FFFEF0" d="M-2417.2-176c20.5,0.3,49.3,3.9,49.3,3.9s-28.8,3.6-49.3,3.9c-20.5,0.3-37.6-3.9-37.6-3.9
		S-2437.7-176.3-2417.2-176z"/>
	<polygon fill="#FFFEF0" points="-221.7,-218.3 -205.5,-186.3 -211.6,-183.2 -227.8,-215.3 	"/>
	<polygon fill="#FFFEF0" points="-247.4,-218.6 -243.4,-190.3 -250.1,-189.3 -254.2,-217.6 	"/>
	<path fill="#E4E2D6" d="M-355.3-160.5c1.9,0,3.4,1.5,3.4,3.4c0,1.9-1.5,3.4-3.4,3.4c-1.9,0-3.4-1.5-3.4-3.4
		S-357.2-160.5-355.3-160.5z"/>
	<path fill="#E4E2D6" d="M-1821.7-160.5c1.9,0,3.4,1.5,3.4,3.4c0,1.9-1.5,3.4-3.4,3.4c-1.8,0-3.4-1.5-3.4-3.4
		C-1825.1-159-1823.6-160.5-1821.7-160.5z"/>
</g>
</svg>
